<svg width="24" height="24" viewBox="0 0 24 24" fill="none" xmlns="http://www.w3.org/2000/svg">
<path d="M3 4.25C3 4.05109 3.07902 3.86032 3.21967 3.71967C3.36032 3.57902 3.55109 3.5 3.75 3.5H4.308C5.258 3.5 5.828 4.139 6.153 4.733C6.37 5.129 6.527 5.588 6.65 6.004C6.68327 6.00137 6.71663 6.00004 6.75 6H19.248C20.078 6 20.678 6.794 20.45 7.593L18.622 14.002C18.4581 14.5769 18.1114 15.0827 17.6343 15.4428C17.1572 15.803 16.5758 15.9979 15.978 15.998H10.03C9.42749 15.998 8.84165 15.8002 8.36252 15.4349C7.8834 15.0696 7.5375 14.557 7.378 13.976L6.618 11.204L5.358 6.956L5.357 6.948C5.201 6.381 5.055 5.85 4.837 5.454C4.628 5.069 4.46 5 4.309 5H3.75C3.55109 5 3.36032 4.92098 3.21967 4.78033C3.07902 4.63968 3 4.44891 3 4.25ZM9.5 21C10.0304 21 10.5391 20.7893 10.9142 20.4142C11.2893 20.0391 11.5 19.5304 11.5 19C11.5 18.4696 11.2893 17.9609 10.9142 17.5858C10.5391 17.2107 10.0304 17 9.5 17C8.96957 17 8.46086 17.2107 8.08579 17.5858C7.71071 17.9609 7.5 18.4696 7.5 19C7.5 19.5304 7.71071 20.0391 8.08579 20.4142C8.46086 20.7893 8.96957 21 9.5 21ZM16.5 21C17.0304 21 17.5391 20.7893 17.9142 20.4142C18.2893 20.0391 18.5 19.5304 18.5 19C18.5 18.4696 18.2893 17.9609 17.9142 17.5858C17.5391 17.2107 17.0304 17 16.5 17C15.9696 17 15.4609 17.2107 15.0858 17.5858C14.7107 17.9609 14.5 18.4696 14.5 19C14.5 19.5304 14.7107 20.0391 15.0858 20.4142C15.4609 20.7893 15.9696 21 16.5 21Z" fill="black"/>
</svg>
